<svg xmlns="http://www.w3.org/2000/svg" width="66" height="66" viewBox="0 0 66 66"><g transform="translate(-1686 -31)"><circle cx="33" cy="33" r="33" transform="translate(1686 31)" fill="#d5e2e2"/><path d="M0,31.442V14.863s.844-.155,2.2-.344C1.965,11.211,1.833,0,10.743,0c8.84,0,8.779,11.038,8.55,14.442,1.652.223,2.707.422,2.707.422V31.442a47.477,47.477,0,0,1-10.917,1.478A49.833,49.833,0,0,1,0,31.442ZM5.209,14.16c1.775-.177,3.83-.319,5.873-.319,1.723,0,3.438.1,4.981.238.206-2.7.368-10.935-5.32-10.935C4.882,3.144,5.05,11.772,5.209,14.16Z" transform="translate(1708 47.59)" fill="#3b7070"/></g></svg>